<?xml version="1.0" encoding="UTF-8"?>
<svg width="92px" height="74px" viewBox="0 0 92 74" version="1.1" xmlns="http://www.w3.org/2000/svg" xmlns:xlink="http://www.w3.org/1999/xlink">
    <!-- Generator: Sketch 55 (78076) - https://sketchapp.com -->
    <title>Logo</title>
    <desc>Created with Sketch.</desc>
    <g id="Home-screen" stroke="none" stroke-width="1" fill="none" fill-rule="evenodd">
        <g id="render-#3-copy" transform="translate(-40.000000, -48.000000)" fill-rule="nonzero">
            <g id="Header" transform="translate(40.000000, 48.000000)">
                <g id="Logo">
                    <path d="M0.68,32.204 L18.36,32.204 C18.36,34.516 20.536,36.08 31.756,36.08 C42.228,36.08 43.792,35.4 43.792,33.632 C43.792,31.592 42.228,31.32 31.076,30.98 C9.588,30.3 1.36,26.764 1.36,15.68 C1.36,5.208 11.628,0.72 30.396,0.72 C48.96,0.72 59.432,5.208 59.432,17.38 L41.752,17.38 C41.752,14.864 37.672,14.32 29.036,14.32 C20.74,14.32 19.04,14.728 19.04,16.564 C19.04,18.4 20.74,18.332 31.076,18.74 C49.844,19.488 61.472,20.78 61.472,33.224 C61.472,46.348 50.592,49.68 31.076,49.68 C11.56,49.68 0.68,46.348 0.68,32.204 Z" id="S" fill="#FFFFFF"></path>
                    <path d="M59.444,55.612 L59.444,46.092 L90.316,46.092 L90.316,72 L80.116,72 L78.824,65.132 C74.812,69.824 68.556,72.68 58.56,72.68 C41.016,72.68 30.68,64.724 30.68,48.132 C30.68,31.608 41.016,23.72 60.6,23.72 C79.64,23.72 89.568,30.384 90.316,43.372 L72.228,43.372 C71.548,40.924 68.08,38.68 60.6,38.68 C50.128,38.68 48.36,43.1 48.36,48.812 C48.36,54.592 50.196,59.76 60.6,59.76 C67.4,59.76 71.548,58.808 72.228,55.612 L59.444,55.612 Z" id="G" stroke="#FFFFFF" stroke-width="1.5" fill-opacity="0" fill="#D8D8D8"></path>
                </g>
            </g>
        </g>
    </g>
</svg>