<?xml version="1.0" encoding="UTF-8"?>
<svg width="26px" height="13px" viewBox="0 0 26 13" version="1.1" xmlns="http://www.w3.org/2000/svg" xmlns:xlink="http://www.w3.org/1999/xlink">
    <!-- Generator: Sketch 58 (84663) - https://sketch.com -->
    <title>long-arrow-pointing-to-the-right</title>
    <desc>Created with Sketch.</desc>
    <g id="neo-design" stroke="none" stroke-width="1" fill="none" fill-rule="evenodd">
        <g id="main-screen-render-#4" transform="translate(-1058.000000, -2484.000000)" fill="#FFFFFF" fill-rule="nonzero">
            <g id="long-arrow-pointing-to-the-right" transform="translate(1058.000000, 2484.000000)">
                <path d="M25.8493826,5.74227399 L20.0717454,0.129045103 C19.9112203,-0.00992484787 19.7357284,-0.0366628013 19.5451114,0.0488874152 C19.3547053,0.134549976 19.259107,0.289472824 19.259107,0.514105336 L19.259107,4.10654037 L0.48146977,4.10654037 C0.34097082,4.10654037 0.225557204,4.15456757 0.135387023,4.2507905 C0.0452695417,4.34695726 0,4.46997431 0,4.61961698 L0,7.69875071 C0,7.8483372 0.0450587405,7.97135425 0.135334322,8.06740866 C0.225715305,8.16357542 0.341128921,8.21160263 0.48141707,8.21160263 L19.2592124,8.21160263 L19.2592124,11.8039815 C19.2592124,12.0181098 19.3549688,12.1730326 19.5452695,12.2689747 C19.7360446,12.354862 19.9115365,12.3223945 20.0720616,12.1730326 L25.8496988,6.49531811 C25.9499874,6.38847864 26,6.26040609 26,6.11059491 C26,5.97196199 25.9496712,5.84916963 25.8493826,5.74227399 Z" id="Path"></path>
            </g>
        </g>
    </g>
</svg>