<?xml version="1.0" encoding="UTF-8"?>
<svg width="140px" height="140px" viewBox="0 0 140 140" version="1.1" xmlns="http://www.w3.org/2000/svg" xmlns:xlink="http://www.w3.org/1999/xlink">
    <!-- Generator: Sketch 55.2 (78181) - https://sketchapp.com -->
    <title>gatsby-inactive</title>
    <desc>Created with Sketch.</desc>
    <g id="retro-design" stroke="none" stroke-width="1" fill="none" fill-rule="evenodd">
        <g id="about-page" transform="translate(-234.000000, -1340.000000)" fill="#4B4B4B" fill-rule="nonzero">
            <g id="gatsby-inactive" transform="translate(234.000000, 1340.000000)">
                <path d="M70,0 C31.3400927,0 0,31.3399702 0,70 C0,108.660152 31.3402152,140 70,140 C108.660152,140 140,108.66003 140,70 C140,31.3399702 108.660152,0 70,0 Z M15.0412352,70.7297024 L69.2701751,124.958765 C39.492278,124.570636 15.429242,100.5076 15.0412352,70.7297024 Z M82.3026449,123.58463 L16.4153697,57.6973551 C22.0023243,33.2627294 43.8715967,15.0320466 70,15.0320466 C88.2642518,15.0320466 104.444882,23.9422357 114.440559,37.6503791 L106.829892,44.365702 C98.7216902,32.7379952 85.250492,25.1281863 70,25.1281863 C50.5831215,25.1281863 34.0481766,37.4615826 27.7982904,54.7212072 L85.2789153,112.201832 C99.2380933,107.14684 109.973887,95.3632936 113.569473,80.7692402 L89.7436274,80.7692402 L89.7436274,70.0001225 L114.871814,70.0001225 L114.871814,69.9998775 L124.967953,69.9998775 L124.967953,70 C124.967953,96.1284034 106.737393,117.997675 82.3026449,123.58463 Z" id="Shape"></path>
            </g>
        </g>
    </g>
</svg>