<?xml version="1.0" encoding="UTF-8"?>
<svg width="158px" height="140px" viewBox="0 0 158 140" version="1.1" xmlns="http://www.w3.org/2000/svg" xmlns:xlink="http://www.w3.org/1999/xlink">
    <!-- Generator: Sketch 55.2 (78181) - https://sketchapp.com -->
    <title>react-inactive</title>
    <desc>Created with Sketch.</desc>
    <g id="retro-design" stroke="none" stroke-width="1" fill="none" fill-rule="evenodd">
        <g id="about-page" transform="translate(-1048.000000, -1336.000000)" fill-rule="nonzero">
            <g id="react-inactive" transform="translate(1048.978723, 1336.000000)">
                <path d="M0,69.7485555 C0,81.507979 11.5547357,92.4858785 29.7717302,98.6736191 C26.1339664,116.873476 29.1197789,131.542438 39.0927184,137.258323 C49.3438681,143.133096 64.6155531,139.066525 79.1104554,126.475093 C93.2396562,138.55822 107.519733,143.313535 117.48338,137.581405 C127.724506,131.689577 130.839635,116.0257 127.101266,97.2577696 C146.07523,91.0235436 156.688742,81.6627705 156.688742,69.7485555 C156.688742,58.2617633 145.112567,48.3241408 127.141279,42.1759395 C131.165777,22.6323617 127.755702,8.3193549 117.369944,2.36741902 C107.356984,-3.37061572 92.9111374,1.63066655 78.574139,14.0302442 C63.6589283,0.869072404 49.3556186,-3.14919852 38.9799284,2.82008483 C28.9767004,8.57444148 26.1221907,23.5099786 29.7717301,42.0467731 C12.1698556,48.1456414 0,58.3077006 0,69.7485555 Z" id="Path" fill="#4B4B4B"></path>
                <path d="M123.617317,48.3118553 C122.174608,47.8169764 120.679667,47.3487409 119.140414,46.9059156 C119.393409,45.8769324 119.625608,44.861271 119.832063,43.8628786 C123.220993,27.4689647 121.005193,14.2619133 113.438894,9.91359003 C106.183763,5.74412381 94.3185498,10.0914603 82.3352559,20.4844118 C81.1829208,21.483791 80.0273673,22.5418847 78.8723099,23.6507983 C78.1026833,22.9171144 77.3342952,22.2081004 76.5678877,21.5299238 C64.009045,10.4171034 51.4207441,5.73400912 43.8618721,10.0949141 C36.6136725,14.2764686 34.4671856,26.692355 37.5177172,42.2289887 C37.812299,43.729661 38.156638,45.2621576 38.5460307,46.8203108 C36.7644292,47.3243177 35.0444671,47.8616289 33.3987693,48.4332314 C18.6748738,53.5490364 9.27152318,61.5667662 9.27152318,69.8832488 C9.27152318,78.4725818 19.3660273,87.0878176 34.7021085,92.3116764 C35.9123697,92.7239114 37.1681796,93.1136963 38.4623596,93.4837452 C38.042271,95.1689492 37.6768904,96.8203545 37.3701786,98.4310549 C34.461492,113.698046 36.7329906,125.820607 43.9618814,129.975765 C51.4286657,134.266854 63.9600303,129.856115 76.1624036,119.226333 C77.1268503,118.386074 78.0947621,117.494996 79.0644064,116.560993 C80.3212072,117.767106 81.5760261,118.908584 82.8241627,119.979259 C94.6435801,130.115397 106.317191,134.208386 113.539398,130.041634 C120.998756,125.738209 123.422992,112.715689 120.275669,96.8716683 C120.0353,95.6616076 119.755571,94.4253969 119.441433,93.1672305 C120.321465,92.9079486 121.185407,92.6402801 122.027812,92.3620032 C137.971129,87.0976856 148.344371,78.5872965 148.344371,69.8832488 C148.344371,61.536669 138.637774,53.464912 123.617317,48.3118553 L123.617317,48.3118553 L123.617317,48.3118553 Z" id="Path" fill="#161616"></path>
                <path d="M120.567448,86.2436889 C119.808004,86.4940489 119.028781,86.73604 118.234726,86.9706452 C116.477027,81.4294795 114.104751,75.5372672 111.201704,69.4495917 C113.971997,63.5069132 116.252556,57.690031 117.961059,52.1848068 C119.381805,52.5941967 120.760771,53.0259887 122.089552,53.4816597 C134.941771,57.8874638 142.781457,64.4015152 142.781457,69.4207887 C142.781457,74.7672301 134.314834,81.7076576 120.567448,86.2436889 L120.567448,86.2436889 L120.567448,86.2436889 Z M114.863207,97.4993277 C116.25305,104.490468 116.451563,110.811272 115.530934,115.752508 C114.703753,120.19253 113.040242,123.152791 110.983412,124.338373 C106.606469,126.86118 97.246411,123.581876 87.1518758,114.931759 C85.9946618,113.940163 84.8290424,112.881362 83.6597148,111.760771 C87.5731303,107.498733 91.4843208,102.543958 95.3015695,97.0411951 C102.015684,96.4479125 108.358978,95.4779803 114.111426,94.1538021 C114.394734,95.2918715 114.646399,96.4080317 114.863207,97.4993277 L114.863207,97.4993277 L114.863207,97.4993277 Z M57.178032,123.902396 C52.9017049,125.406283 49.4958223,125.449364 47.4370148,124.267228 C43.0561158,121.751068 41.2348821,112.038457 43.7191467,99.0098614 C44.0036913,97.5177909 44.3423761,95.9851026 44.7327287,94.4184411 C50.4221373,95.6712283 56.7189535,96.5727228 63.4491376,97.1160327 C67.2920967,102.500631 71.3162644,107.449991 75.3715811,111.783665 C74.4855622,112.635432 73.6030038,113.446335 72.7253904,114.210464 C67.3368426,118.900847 61.9369231,122.228648 57.178032,123.902396 L57.178032,123.902396 L57.178032,123.902396 Z M37.1439663,86.2109473 C30.3717555,83.9060056 24.779008,80.9102951 20.9454431,77.6413301 C17.5007478,74.7037171 15.7615894,71.787275 15.7615894,69.4207887 C15.7615894,64.3847756 23.3014032,57.9613164 35.8764944,53.5953928 C37.4023061,53.0656229 38.9995629,52.5663789 40.6571403,52.0974145 C42.3950625,57.7269573 44.6748803,63.6127689 47.4261374,69.5645555 C44.6392814,75.6047189 42.3270784,81.5843243 40.5720983,87.2798414 C39.3904101,86.9415962 38.2455569,86.5856267 37.1439663,86.2109473 L37.1439663,86.2109473 L37.1439663,86.2109473 Z M43.8595649,40.6906234 C41.2494677,27.4074822 42.9829401,17.3871519 47.3450508,14.8727147 C51.9914589,12.1940783 62.265966,16.013246 73.0949774,25.5882447 C73.7871793,26.2002372 74.4821011,26.840786 75.1790008,27.5034906 C71.1437084,31.8182098 67.156376,36.730397 63.3475328,42.0832385 C56.8156146,42.6861225 50.5630499,43.6545772 44.8143097,44.9514301 C44.4528812,43.5036716 44.1327376,42.0812692 43.8595649,40.6906234 L43.8595649,40.6906234 L43.8595649,40.6906234 Z M103.768687,55.4215231 C102.394419,53.0577453 100.983561,50.7498494 99.545264,48.5049744 C103.976595,49.0628082 108.222267,49.8033044 112.209353,50.7094766 C111.012336,54.529629 109.520394,58.5238276 107.764177,62.6184657 C106.50437,60.2367172 105.17188,57.8352746 103.768687,55.4215231 L103.768687,55.4215231 L103.768687,55.4215231 Z M79.3379003,31.725894 C82.0745717,34.6782776 84.8151985,37.9745683 87.5108323,41.5510069 C84.7944323,41.4232419 82.0444111,41.3567744 79.2716469,41.3567744 C76.5250868,41.3567744 73.7953377,41.4217648 71.0957485,41.5473143 C73.7941016,38.0041094 76.5584609,34.7122497 79.3379003,31.725894 L79.3379003,31.725894 L79.3379003,31.725894 Z M54.7506268,55.4623882 C53.3778412,57.8328128 52.0700733,60.2212082 50.8300423,62.6140349 C49.1022558,58.5336747 47.6241567,54.5212591 46.4167581,50.646948 C50.3793691,49.7639162 54.6050171,49.0418834 59.0081655,48.494635 C57.5495963,50.7601887 56.1271205,53.0850708 54.7506268,55.4618959 L54.7506268,55.4623882 L54.7506268,55.4623882 Z M59.1349868,90.7683956 C54.5857343,90.262997 50.2965521,89.5781372 46.3349298,88.7194762 C47.5616112,84.7759899 49.0723428,80.6779056 50.836717,76.5096606 C52.0799619,78.9007638 53.3929214,81.2901441 54.7741122,83.6657387 L54.7743594,83.6657387 C56.1812607,86.0858903 57.638841,88.4565607 59.1349868,90.7683956 L59.1349868,90.7683956 L59.1349868,90.7683956 Z M79.5020514,107.532213 C76.6899793,104.5109 73.8850765,101.168821 71.1456858,97.5739192 C73.8049786,97.6778052 76.5161866,97.7309796 79.2716469,97.7309796 C82.1025073,97.7309796 84.900982,97.667466 87.6554533,97.5453629 C84.9509193,101.205009 82.2201817,104.552258 79.5020514,107.532213 L79.5020514,107.532213 L79.5020514,107.532213 Z M107.82079,76.2972112 C109.677128,80.510506 111.242,84.5871733 112.484503,88.4634539 C108.457616,89.378242 104.109844,90.115046 99.528948,90.6625406 C100.970707,88.3873855 102.393924,86.0398551 103.792419,83.625119 C105.207232,81.1820734 106.550599,78.7353345 107.82079,76.2972112 L107.82079,76.2972112 L107.82079,76.2972112 Z M98.6530641,80.6734742 C96.4820212,84.4219894 94.2531297,88.0003973 91.9903699,91.378173 C87.8690463,91.6716137 83.6112607,91.8227658 79.2716469,91.8227658 C74.9495853,91.8227658 70.7454445,91.6890921 66.6970501,91.4274075 C64.3430678,88.0053214 62.0657222,84.4163277 59.9085229,80.7057231 L59.9090174,80.7057231 C57.7575042,77.0052122 55.7773112,73.2734366 53.9830239,69.5625865 C55.7768167,65.8431197 57.7518182,62.1071593 59.8909706,58.4132948 L59.8904762,58.4140333 C62.0353144,54.7103219 64.2926357,51.1388068 66.6248629,47.7381375 C70.7553332,47.4272178 74.99087,47.2649881 79.2713998,47.2649881 L79.2716469,47.2649881 C83.5714591,47.2649881 87.8124345,47.4284486 91.9416681,47.7420764 C94.2382967,51.1178819 96.4802909,54.6778267 98.6335346,58.3820305 C100.811253,62.1278382 102.811717,65.8389343 104.620837,69.4786407 C102.817156,73.1808746 100.821141,76.9293904 98.6530641,80.6734742 L98.6530641,80.6734742 L98.6530641,80.6734742 Z M110.892438,14.6969453 C115.543296,17.367704 117.351921,28.1388698 114.429839,42.2631929 C114.243438,43.1644417 114.033553,44.0824303 113.80562,45.0127278 C108.04353,43.6887956 101.786516,42.703601 95.2355632,42.0916085 C91.4193029,36.6799311 87.4646027,31.7601123 83.4950695,27.5007826 C84.5622975,26.4784156 85.6280418,25.5035603 86.6893359,24.5836022 C96.9428302,15.6978952 106.526124,12.1896471 110.892438,14.6969453 L110.892438,14.6969453 L110.892438,14.6969453 Z" id="Shape" fill="#4B4B4B"></path>
                <path d="M79.2715235,56.5562914 C86.1841096,56.5562914 91.7880795,62.1600118 91.7880795,69.0728471 C91.7880795,75.9854331 86.1841096,81.589404 79.2715235,81.589404 C72.3589374,81.589404 66.7549669,75.9854331 66.7549669,69.0728471 C66.7549669,62.1600118 72.3589374,56.5562914 79.2715235,56.5562914" id="Path" fill="#161616"></path>
            </g>
        </g>
    </g>
</svg>