<?xml version="1.0" encoding="UTF-8"?>
<svg width="232px" height="140px" viewBox="0 0 232 140" version="1.1" xmlns="http://www.w3.org/2000/svg" xmlns:xlink="http://www.w3.org/1999/xlink">
    <!-- Generator: Sketch 55.2 (78181) - https://sketchapp.com -->
    <title>tailwind-inactive</title>
    <desc>Created with Sketch.</desc>
    <g id="retro-design" stroke="none" stroke-width="1" fill="none" fill-rule="evenodd">
        <g id="about-page" transform="translate(-474.000000, -1340.000000)" fill="#4B4B4B" fill-rule="nonzero">
            <g id="tailwind-inactive" transform="translate(474.000000, 1340.000000)">
                <path d="M116,0 C85.0666667,0 65.7333333,15.5555556 58,46.6666667 C69.6,31.1111111 83.1333333,25.2777777 98.6,29.1666667 C107.424592,31.3854939 113.731985,37.8241975 120.713467,44.9516667 C132.086623,56.5621605 145.249615,70 174,70 C204.933333,70 224.266667,54.4444444 232,23.3333333 C220.4,38.8888889 206.866667,44.7222223 191.4,40.8333333 C182.575408,38.6145061 176.268015,32.1758025 169.286533,25.0483333 C157.913377,13.4378395 144.750385,0 116,0 Z M58,70 C27.0666667,70 7.73333333,85.5555556 0,116.666667 C11.6,101.111111 25.1333333,95.2777775 40.6,99.1666667 C49.4245926,101.385493 55.7319852,107.824197 62.7134667,114.951667 C74.0866223,126.56216 87.2496148,140 116,140 C146.933333,140 166.266667,124.444444 174,93.3333333 C162.4,108.888889 148.866667,114.722223 133.4,110.833333 C124.575408,108.614507 118.268015,102.175803 111.286533,95.0483333 C99.9133774,83.4378395 86.7503852,70 58,70 Z" id="Shape"></path>
            </g>
        </g>
    </g>
</svg>