<?xml version="1.0" encoding="UTF-8"?>
<svg width="143px" height="140px" viewBox="0 0 143 140" version="1.1" xmlns="http://www.w3.org/2000/svg" xmlns:xlink="http://www.w3.org/1999/xlink">
    <!-- Generator: Sketch 55.2 (78181) - https://sketchapp.com -->
    <title>travis-inactive</title>
    <desc>Created with Sketch.</desc>
    <g id="retro-design" stroke="none" stroke-width="1" fill="none" fill-rule="evenodd">
        <g id="about-page" transform="translate(-806.000000, -1340.000000)" fill-rule="nonzero">
            <g id="travis-inactive" transform="translate(806.000000, 1340.000000)">
                <path d="M142.627937,49.1733148 C142.561189,48.6589892 142.480843,48.1452736 142.373303,47.6413199 C142.27318,47.1208931 142.169348,46.6370731 142.003095,46.0733283 L141.605074,45.4497924 C139.964784,44.1783159 138.194705,43.2167771 136.398051,42.3674991 C134.914744,41.6762406 133.407953,41.0740586 131.883855,40.5188553 C127.6348,28.8791107 120.331989,18.5584314 110.729435,11.3670239 C100.804262,3.93462173 89.1306409,0 76.9730915,0 C64.8149237,0 53.1413031,3.93462173 43.2155116,11.3676341 C33.6135754,18.5584314 26.3095278,28.8797208 22.0617094,40.5219059 C20.5413204,41.0746687 19.0320562,41.6792911 17.550604,42.3674991 C15.750859,43.2167771 13.9820162,44.1777058 12.3411086,45.4497924 L11.941852,46.0733283 C11.7830146,46.6370731 11.6791832,47.1208931 11.5716435,47.6413199 C11.46843,48.1452736 11.3911745,48.6589892 11.3176272,49.1733148 C11.1705327,50.1885436 11.0728817,51.2153646 11.0184938,52.2427957 C10.9140443,54.3000982 10.9727585,56.3610617 11.2014349,58.4067721 C11.4220767,60.449432 11.8077364,62.4737883 12.3577958,64.4810617 C12.6464225,65.477377 12.9739859,66.4633201 13.3627358,67.4413322 C13.5555656,67.9312533 13.7663187,68.4175136 13.9999395,68.9037739 C14.1148957,69.1453791 14.2409768,69.3814927 14.36953,69.6285889 C14.6544484,70.1215605 14.7063641,70.2179585 14.8262647,70.3930613 L15.3651994,70.8829824 C15.7162485,71.061135 16.0073474,71.1965805 16.3250222,71.345448 L17.2527066,71.7560545 C17.4245229,71.8256074 17.5858325,71.8945504 17.7613571,71.9641033 C13.546913,75.8108684 8.96967691,80.807698 5.00554079,86.9838767 L0,94.7799065 L7.02778171,88.690974 C7.14706431,88.5878647 13.0394986,83.5519882 22.8670211,77.8468171 L23.0048449,78.9621048 C22.3620789,79.2921759 19.2718573,80.8931135 18.3534435,81.651485 C16.8312004,82.899777 16.7576532,84.8362773 17.1649444,88.4499792 C17.3738433,90.3016733 18.0771777,93.8970721 19.0258757,97.1935151 C20.6606029,102.86574 21.8583728,103.868767 22.9102841,104.10366 C23.3849422,104.215921 23.9974241,104.267781 24.6859254,104.267781 C26.5684884,104.267781 28.9794792,103.905984 30.55302,103.436806 C32.3985003,109.10232 35.0128277,114.216901 38.1994641,118.705506 C38.0455711,118.746383 37.8935321,118.795193 37.7396391,118.838511 C35.8230837,117.961167 29.1210114,114.895957 26.8676218,113.896591 L22.1605964,111.804512 L24.944886,116.096051 C25.1476045,116.405988 29.953517,123.803614 33.8774803,128.790071 C37.5474274,133.439746 42.5727455,138.199851 52.0553992,138.199851 C53.196927,138.199851 54.3909886,138.127248 55.6215148,137.993023 C58.4490676,137.672713 60.5739038,137.420736 62.1894717,137.216348 C72.1436932,140.827 83.119542,141.049081 93.5360605,137.152897 C96.3864806,136.083977 98.9841213,134.787487 101.369154,133.333586 C105.385206,132.381809 109.777647,131.348277 111.9476,130.746705 C112.295559,130.653968 112.731281,130.551469 113.184307,130.445919 C116.20778,129.759542 121.26091,128.602156 123.955583,123.281357 C126.670652,117.912968 131.098321,109.687419 131.144674,109.603223 L133.215123,105.765609 L129.181148,107.497112 C128.96545,107.594119 123.853606,109.791138 121.198487,111.165114 C123.04335,106.971804 124.13049,103.500868 124.50935,102.16777 C125.996365,102.521026 128.200929,102.475877 129.82206,102.475877 C130.619337,102.475877 131.439481,102.339212 131.971618,102.204987 C133.025383,101.940808 133.839347,101.249549 135.369625,95.3967311 C136.260845,91.9947382 136.899903,88.2901292 137.074809,86.3859651 C137.414115,82.6801358 137.304104,80.6942166 135.771972,79.4404335 C135.008687,78.8181179 132.768277,77.6271765 131.629221,77.0408573 C132.266425,76.7717971 132.579155,76.8505019 132.603259,76.8572131 L133.637865,72.985433 C134.001893,72.8316844 134.386935,72.6773259 134.825128,72.511375 C135.449353,72.2661095 136.074195,72.0220643 136.699039,71.7560545 L137.621779,71.345448 C137.943161,71.1965805 138.231788,71.0617455 138.584073,70.8829824 L139.123008,70.3930613 C139.2392,70.2179585 139.301623,70.1215605 139.373316,69.9879457 C139.714477,69.3814927 139.834995,69.1453791 139.948715,68.9037739 C140.182336,68.4175136 140.389999,67.9306429 140.585919,67.4413322 C140.974669,66.4633201 141.301614,65.477377 141.589623,64.4810617 C142.137828,62.4737883 142.52905,60.4500419 142.74722,58.4067721 C142.978723,56.3610617 143.03152,54.3000982 142.927689,52.2427957 C142.878246,51.2153646 142.77565,50.1885436 142.627937,49.1733148 L142.627937,49.1733148 Z" id="Path" fill="#161616"></path>
                <g id="Group" transform="translate(12.907801, 1.985816)">
                    <path d="M70.1482841,68.8493086 C68.9589691,69.8074997 67.7060842,70.6995243 66.4013556,71.4824964 L62.0489695,74.0887272 C59.3191615,74.4195604 56.950407,75.0891914 56.8152437,75.1302392 C56.7356268,75.1473932 56.6603301,75.1841525 56.5899711,75.2264257 C56.3782766,75.3477314 56.2171914,75.5511327 56.1400433,75.7919056 L51.7074232,90.2879153 L28.0161724,95.5181439 L20.551941,90.3301885 L18.3813025,72.8744464 C22.620744,72.1012767 28.2877337,71.2092526 35.0940462,70.4507867 C34.3663855,71.3158544 33.6584746,72.2250331 32.9851262,73.1813863 L28.9333088,78.9550388 L34.8348287,75.0505938 C34.9237032,74.9893288 38.679272,72.5350362 44.8264313,69.5495721 C50.9526064,69.0943701 57.7157161,68.8002962 64.9503544,68.8002962 C66.7179714,68.8002962 68.4485572,68.8211263 70.1482841,68.8493086 L70.1482841,68.8493086 L70.1482841,68.8493086 Z M33.2714999,88.5148944 C34.9557968,87.611842 36.8567256,87.7441754 39.8346416,87.7509146 C40.1518746,87.7570415 40.4820684,87.7533654 40.8239887,87.7441754 C41.1183858,87.7441754 41.4115485,87.7392745 41.7232268,87.7300845 C44.791869,87.6994515 47.3408417,87.9873991 47.2945528,83.2093094 C47.2488811,78.4306073 45.1091019,74.5659847 42.0429284,74.5960047 C38.9773722,74.6229611 36.0099483,78.5396593 36.1932521,83.3159112 C36.2420097,84.5595992 36.4277823,85.458363 36.7221794,86.1041002 C34.0503869,86.7712805 33.3109997,88.4119687 33.2714999,88.5148944 L33.2714999,88.5148944 L33.2714999,88.5148944 Z" id="Shape" fill="#4B4B4B"></path>
                    <path d="M111.210815,72.816857 L109.077207,87.6596291 L101.552491,92.8904706 L77.8920999,90.2211365 L73.4773782,75.7906803 C73.3767771,75.469037 73.1262002,75.2227496 72.8015609,75.1296263 C72.6559052,75.0861277 69.726747,74.2547562 66.6216906,73.9882516 L67.1901177,73.9508799 C67.6795454,73.914733 75.8387267,72.9228464 85.58469,69.5893946 C96.374312,70.4109643 105.188326,71.7251071 111.210815,72.816857 L111.210815,72.816857 L111.210815,72.816857 Z M96.093493,86.5556267 C96.062634,86.4404473 95.4133554,84.5203891 92.5650486,84.8573492 C92.8921562,84.1466703 93.0396632,83.1878663 92.9359764,81.8718851 C92.5601109,77.102373 89.7624128,73.3118814 86.6993252,73.4190962 C83.6331518,73.5244726 81.6723561,77.4785425 81.8420818,82.2633715 C82.0105735,87.0377851 84.5805302,87.0047019 87.6467036,86.8962623 C91.7645598,86.8184552 94.0253072,85.5631265 96.093493,86.5556267 L96.093493,86.5556267 L96.093493,86.5556267 Z" id="Shape" fill="#4B4B4B"></path>
                    <path d="M87.9984991,77.9692784 C88.0133117,78.8282193 87.3270021,79.5346096 86.4610919,79.5523766 C85.5970337,79.5676934 84.880482,78.8821332 84.8687558,78.0256425 C84.8508574,77.167314 85.5390184,76.4578606 86.4036941,76.4425443 C87.2714556,76.4241644 87.9861554,77.110337 87.9984991,77.9692784" id="Path" fill="#4B4B4B"></path>
                    <path d="M44.0821066,79.1131038 C44.1037081,79.9683691 43.421719,80.6839488 42.559512,80.7060043 C41.6911332,80.7305105 40.9702615,80.0547532 40.9461913,79.1921363 C40.9245898,78.336258 41.6053445,77.6170022 42.4743405,77.5986228 C43.3353131,77.574729 44.0580364,78.2510992 44.0821066,79.1131038" id="Path" fill="#4B4B4B"></path>
                    <path d="M121.538166,79.3465251 C121.168472,79.0432613 119.932869,78.3423848 118.728741,77.6960346 L116.745727,91.4930062 C116.70561,91.7558352 116.555017,92.0021221 116.329744,92.1595741 L113.492546,94.1292571 C113.425273,94.462541 113.372813,94.7406863 113.322203,95.001064 C116.110027,95.6823357 118.817616,93.6869206 120.337742,92.2471836 C121.040715,89.5288371 121.653579,86.3019877 121.865273,83.9922815 C122.188678,80.4119304 121.902305,79.6436622 121.538166,79.3465251" id="Path" fill="#4B4B4B"></path>
                    <path d="M77.7192884,131.762764 C75.8782267,131.112738 74.1908436,130.052846 72.721944,128.611271 C72.5997413,128.487515 72.4830938,128.368047 72.3602736,128.246742 C71.2234198,128.477713 70.0624956,128.643742 68.8793522,128.743604 C68.3806671,128.76566 67.9048175,128.807933 67.3845308,128.807933 L66.6149015,128.814672 L66.3186529,128.807933 C64.5590595,131.401911 61.6008937,132.827557 59.2833648,133.586636 C66.168677,134.759256 73.7446191,132.964792 77.7192884,131.762764" id="Path" fill="#4B4B4B"></path>
                    <path d="M17.1068161,97.9730496 C17.0450977,97.7647468 16.9802933,97.5588954 16.9204264,97.3499802 L13.2345995,94.7890857 C13.0031553,94.6261199 12.8562653,94.3804454 12.8192342,94.1010753 L11.0219924,79.6130297 C9.69195949,80.3175817 8.15455245,81.1875508 7.74535902,81.527574 C7.38986065,81.8191972 7.11829942,82.5617339 7.50280548,86.01404 C7.79473381,88.6092431 8.71310458,92.5963967 9.65122529,95.5843109 C11.5175917,97.0013801 14.2665323,98.495031 17.1068161,97.9730496" id="Path" fill="#4B4B4B"></path>
                    <path d="M72.2096807,97.3119956 C71.8177683,97.268497 71.4875749,96.9952532 71.3721613,96.6160206 L66.8235102,81.7371016 C66.06067,81.6378514 65.3836182,81.5827127 64.8121053,81.5827127 C64.2381235,81.5827127 63.5653925,81.6378514 62.8031693,81.7371016 L58.381658,96.1883879 C58.2773542,96.524735 57.9965351,96.7851127 57.6472085,96.8610821 L55.533351,97.3285372 C55.3543674,98.0698485 54.7452061,99.1573098 52.7850276,99.7540351 C49.621339,100.711613 29.5949308,106.637204 27.3113475,106.314948 C25.9776114,106.129314 23.4409824,104.739815 21.5641238,103.616207 C20.8130101,101.860952 20.3976448,100.667502 20.3025984,100.384456 L20.3025984,100.378942 L20.2970437,100.384456 C20.5624331,101.155175 23.175593,108.622204 28.4852327,115.926267 C34.1775269,114.261073 39.0940201,112.708607 40.6659894,112.214808 C43.8679435,107.313575 48.4295554,102.450326 51.6691577,102.284297 C52.231413,102.256727 52.809715,102.239573 53.3830796,102.239573 C54.9704786,102.239573 56.4856667,102.351688 57.8922308,102.517105 C56.6973612,101.440672 56.4523389,100.181668 56.2789099,99.6229271 C56.2789099,99.6229271 60.4165158,102.835073 65.6792499,102.159315 C70.9500068,101.489684 74.2198512,98.476651 74.2198512,98.476651 L74.3235381,97.5503178 L72.2096807,97.3119956" id="Path" fill="#4B4B4B"></path>
                    <path d="M76.4873877,99.1952945 C75.395588,98.914699 74.7080445,98.4674611 74.2729293,98.0012313 L74.2186168,98.476651 C74.2186168,98.476651 74.2007184,100.672404 71.9084945,102.373744 C76.3225992,101.046735 78.1476145,100.59766 79.3974136,100.59766 C80.7731182,100.59766 81.4538726,101.167428 82.0506905,101.667967 C82.1636352,101.761703 82.27658,101.859727 82.4117434,101.964491 C85.8068763,104.616671 89.8877013,107.836168 91.0794851,108.782719 C92.4613612,108.940784 96.8470758,109.438872 99.6071258,109.688835 C101.196376,109.835872 102.635651,109.954727 104.0453,109.954727 C104.49708,109.954727 104.924789,109.93941 105.329044,109.911841 C106.784366,107.145095 108.124274,104.084275 109.316675,100.709775 C107.684839,101.846249 103.965684,104.333625 102.223372,104.654043 C99.956452,105.075549 79.6837873,100.018089 76.4873877,99.1952945" id="Path" fill="#4B4B4B"></path>
                    <path d="M127.50017,47.1607387 C127.461904,46.6840938 127.409443,46.2080615 127.350811,45.7375431 C127.311311,45.4005833 127.257616,45.0513704 127.198983,44.727889 C125.918942,43.6588075 124.463004,42.706743 122.948433,41.8453512 C121.307956,40.8889981 119.590331,40.0392468 117.836292,39.2476976 C116.097683,38.4316423 114.307847,37.6940067 112.51184,36.9747507 C111.613836,36.6114468 110.708426,36.2616212 109.798696,35.9283373 C108.893286,35.5766739 107.979853,35.2489039 107.062099,34.9180706 C108.98463,35.2348129 110.89173,35.6710226 112.784018,36.1537941 C114.015302,36.4656351 115.238562,36.8203618 116.453799,37.2002074 C107.803338,14.7654247 87.132589,0.157298955 64.5602939,0.157298955 C41.9855303,0.157298955 21.3160156,14.7660374 12.6723443,37.2002074 C13.8857293,36.8203618 15.1120753,36.4656351 16.3371869,36.1537941 C18.2282407,35.6710226 20.1359585,35.2348129 22.0621919,34.9180706 C21.1388836,35.2489039 20.2273019,35.5766739 19.3169545,35.9283373 C18.4121617,36.2622338 17.507369,36.6114468 16.6087481,36.9747507 C14.8115063,37.6940067 13.0253739,38.4316423 11.28121,39.2476976 C9.53334303,40.0392468 7.81571807,40.8889981 6.17338969,41.8453512 C4.65820131,42.706743 3.20534859,43.6588075 1.92222166,44.727889 C1.86976096,45.0519831 1.81421434,45.401196 1.7716286,45.7375431 C1.71484761,46.2080615 1.66238691,46.6840938 1.61980117,47.1607387 C1.53648124,48.1170919 1.50377045,49.075283 1.49698142,50.0377626 C1.47599714,51.9608841 1.60745747,53.8840055 1.85124542,55.7844584 C2.1178692,57.6928765 2.46966447,59.5884284 2.98995114,61.422102 C3.2454656,62.3374074 3.53862831,63.2416852 3.87622833,64.118393 C4.0465713,64.5552156 4.23049233,64.9889745 4.42305395,65.4055795 C4.51748321,65.6144946 4.61561557,65.820959 4.71745104,66.0182335 L4.84150516,66.2516548 C4.98284045,66.3221103 5.13281632,66.3968537 5.27230006,66.4642461 L6.13142112,66.8710481 C6.61097361,67.0897656 7.2756815,67.4022194 7.82435866,67.6454431 C7.85521789,67.6178738 7.88607712,67.5903045 7.91076454,67.5633475 L6.31534216,61.5311545 C6.65417654,61.4404819 9.68331889,60.6630237 14.904084,59.6742002 C14.4850156,59.5957801 14.0603926,59.5081706 13.6419414,59.4076956 C12.4532437,59.1123958 11.2799756,58.7546062 10.1418871,58.2994042 C9.57901472,58.0623067 9.02354848,57.8049921 8.4946212,57.5078546 C7.96569398,57.2045912 7.44602446,56.8645681 7.04176851,56.4093661 C12.7766485,58.2693841 24.6302973,57.4288226 35.1681083,56.3462628 C44.8023611,55.3598893 54.4656215,54.722729 64.1751705,54.7012861 C73.8822513,54.722729 83.5492146,55.3598893 93.1785299,56.3462628 C103.720661,57.4288226 115.573693,58.2693841 121.307956,56.4093661 C120.90802,56.8645681 120.384648,57.2045912 119.860658,57.5078546 C119.32741,57.8049921 118.770709,58.0629197 118.207837,58.2994042 C117.070983,58.7546062 115.902035,59.1123958 114.711486,59.4076956 C114.534971,59.4493558 114.356605,59.4861151 114.18009,59.5253252 C119.907564,60.5790903 123.240361,61.4368058 123.59339,61.5305421 L122.068944,67.2766253 C122.378771,67.1436795 122.689832,67.0107337 122.98855,66.8704357 L123.85014,66.4636331 C123.991475,66.3962413 124.138365,66.3214973 124.284637,66.2510424 L124.400051,66.0176211 C124.504355,65.8203466 124.605573,65.6138822 124.698768,65.4049671 C124.891947,64.9883621 125.075868,64.5546032 125.243742,64.1177806 C125.579491,63.2410722 125.873888,62.336795 126.130637,61.4214896 C126.652775,59.5878155 127.00457,57.6916511 127.266874,55.783846 C127.515599,53.8833928 127.647677,51.9602714 127.629161,50.03715 C127.621138,49.075283 127.58781,48.1164792 127.50017,47.1607387" id="Path" fill="#4B4B4B"></path>
                    <path d="M79.4072885,59.1969421 C79.1783132,59.491629 78.9271187,59.8132722 78.6580264,60.1496193 C77.2761498,61.8828184 75.3622602,64.0938868 73.0953406,66.2632955 C70.4544075,66.1811999 67.7431154,66.1358636 64.9522063,66.1358636 C60.3393678,66.1358636 55.9166227,66.2565563 51.7172982,66.4568939 C57.6533806,64.0148549 64.7812463,61.6273416 72.5022266,60.1949562 C74.7555674,59.7703867 77.0619864,59.4309764 79.4072885,59.1969421" id="Path" fill="#4B4B4B"></path>
                    <path d="M44.6807757,61.833806 C42.559512,63.3121401 40.169773,65.195439 37.8497758,67.4830897 C31.9112249,68.0749136 26.7274908,68.7874307 22.4547213,69.4729904 C29.0252693,66.4764992 36.5259146,63.7146541 44.6807757,61.833806" id="Path" fill="#4B4B4B"></path>
                    <path d="M117.256756,74.007244 L114.838009,90.7841657 L103.263327,98.8350536 L73.0768253,95.4274713 L68.5349632,80.5718331 C68.4269562,80.2122052 68.1195978,79.946926 67.7437323,79.8838228 C66.6260113,79.7043147 65.6378985,79.6167052 64.8121053,79.6167052 C63.9844607,79.6167052 62.9963479,79.7043147 61.8718373,79.8838228 C61.5009095,79.9475384 61.1954031,80.2122052 61.0824583,80.5718331 L56.6516896,95.0660056 L26.6355303,101.695536 L14.7399129,93.4240921 L12.3921424,74.5953918 C12.9056401,74.3111203 13.4259268,74.025011 13.9474478,73.7395141 C14.6849835,73.5820621 15.5132453,73.4154201 16.4297645,73.2426518 L18.6392857,91.0102349 C18.6695277,91.2859294 18.8262926,91.5316033 19.0558853,91.6908936 L27.2416056,97.3836759 C27.4063939,97.4964045 27.6082133,97.5601202 27.8057124,97.5601202 C27.8791574,97.5601202 27.9495164,97.5503178 28.0266645,97.5356145 L52.7047936,92.0854431 C52.7905823,92.0646124 52.8720507,92.0345923 52.9516675,91.9959953 C53.1781743,91.8740772 53.360861,91.6670004 53.4349231,91.4096852 L57.8823559,76.8854932 C59.0741392,76.5828423 62.1285864,75.8721635 64.8114884,75.8721635 C67.4894526,75.8721635 70.5432823,76.5828423 71.7381519,76.8854932 L76.1824987,91.4096852 C76.2960604,91.7852423 76.6287232,92.0590985 77.0194012,92.1044354 L101.70185,94.887723 C101.938849,94.9152923 102.182637,94.8503513 102.378902,94.7137294 L110.567708,89.0313619 C110.788043,88.8732969 110.939871,88.627623 110.977519,88.3605055 L113.163587,73.1783226 C114.804681,73.4901641 116.176682,73.7762734 117.256756,74.007244" id="Path" fill="#161616"></path>
                    <path d="M120.303796,63.4842959 L118.17883,71.4855595 C113.833232,70.5334947 104.290323,68.6667375 91.29982,67.410184 C95.5423472,65.6138822 99.8644913,63.3636032 103.813856,60.5441688 C111.543477,61.627954 117.219108,62.791997 120.303796,63.4842959" id="Path" fill="#4B4B4B"></path>
                    <path d="M9.60678798,63.4842959 L10.1974337,65.699041 C11.8508715,64.3916368 13.3642083,63.3090769 14.6411634,62.4446222 C12.5600166,62.8410094 10.8627588,63.2018627 9.60678798,63.4842959" id="Path" fill="#6E6A67"></path>
                    <path d="M92.950789,59.0217232 C89.6976085,58.8391525 86.4462794,58.6841507 83.1912475,58.550592 C83.0042405,58.8268994 82.6197346,59.381964 82.0698233,60.1287892 C80.3256593,62.4709662 76.8879406,66.740553 72.4812419,70.4036121 C75.7967578,69.3608747 88.9495808,64.9810105 95.6120893,59.184689 C94.7245775,59.1277126 93.8383002,59.0725733 92.950789,59.0217232" id="Path" fill="#161616"></path>
                    <path d="M69.1132652,58.1689086 C69.118203,58.1676832 69.1237576,58.1670708 69.1268434,58.1658454 C67.4771089,58.1444024 65.8255225,58.1272483 64.1782568,58.1205091 L64.1751705,58.1205091 C61.7484007,58.1272483 59.327185,58.1578808 56.9004152,58.1995416 L52.4258261,60.3052335 C52.4190371,60.3052335 52.391881,60.3205498 52.3597874,60.3419928 C51.6864389,60.6666998 45.8126924,63.6092777 40.2821005,68.8584986 C40.7659733,68.6054725 41.2788538,68.3432565 41.8071639,68.0773643 C44.8319859,66.0598942 52.8992068,61.2824169 65.4434854,58.1333746 C66.6667452,58.1407268 67.8906224,58.1480785 69.1132652,58.1689086" id="Path" fill="#161616"></path>
                    <path d="M41.6164538,58.7055938 C39.5445649,58.8005549 37.4720587,58.9059314 35.4020213,59.0223361 C33.0017902,59.1552819 30.6089652,59.3157971 28.2179918,59.4946921 C27.025591,59.5859777 25.8313386,59.6870657 24.6488128,59.8102091 C24.3056582,59.8432923 23.9699097,59.8800516 23.633544,59.9229377 C20.5093552,61.776829 8.55201938,69.2279289 0.336674238,78.980158 C0.478009528,78.8110653 0.624282295,78.6438109 0.769320695,78.476556 C15.9786025,65.5961152 32.653698,60.5821534 41.6164538,58.7055938" id="Path" fill="#161616"></path>
                    <path d="M110.426373,111.676285 C110.335647,111.722847 110.238749,111.771859 110.152343,111.816583 C108.626663,112.61242 106.628218,113.002068 104.0453,113.002068 C102.507893,113.002068 101.000111,112.874024 99.3287751,112.723924 C95.991658,112.421272 90.3425662,111.761444 90.2851684,111.751029 L89.853139,111.705692 L89.5112189,111.432449 C89.4593752,111.39814 84.513257,107.482054 80.5139008,104.361194 C80.3509636,104.230086 80.2040741,104.105105 80.0701446,103.999728 C79.6479906,103.641939 79.6479906,103.641939 79.3967961,103.641939 C78.1130523,103.641939 74.3840222,104.791277 66.2174349,107.302547 L65.716281,107.461837 L65.2200642,107.274978 C65.1645178,107.260886 59.8067379,105.288752 53.3849311,105.288752 C52.8584726,105.288752 52.3344828,105.301618 51.8240711,105.326737 C51.1815819,105.359208 47.5722859,107.061774 42.9532758,114.309473 L42.6576444,114.77754 L42.1256311,114.94602 C42.0491003,114.971139 34.1028476,117.516104 25.6751909,119.908519 L25.1314513,120.061683 L24.6117817,119.82336 C24.5568523,119.80498 21.2660236,118.285598 18.1294911,116.858114 C18.3603182,116.964716 18.5929968,117.069479 18.8244411,117.176081 C21.9208566,119.828874 27.8501497,124.931058 28.5086857,125.638061 C28.6000291,125.739761 28.7271691,125.86413 28.8783794,126.00504 C28.7253176,125.833497 28.5771933,125.65644 28.4315377,125.478158 C28.4296861,125.476932 28.4278346,125.474482 28.425983,125.472644 L28.4266002,125.473256 L28.425983,125.472644 C29.7924298,126.758605 31.316876,127.869347 32.9826575,128.651094 C33.8140052,129.038904 34.68547,129.339104 35.57113,129.484916 C36.0179717,129.557822 36.4518525,129.593968 36.9042488,129.593968 C37.3621999,129.593968 37.830643,129.58049 38.2978518,129.557822 C40.1506402,129.463473 42.0200926,129.322563 43.8858418,129.143055 C45.747888,128.976413 47.6124029,128.791391 49.4732147,128.56716 C51.3321749,128.36866 53.1905179,128.136464 55.0328142,127.852805 C55.9561226,127.719247 56.873259,127.567921 57.7694112,127.370647 C58.2094635,127.26772 58.6680317,127.153767 59.0167414,126.998153 C59.3345916,126.84744 59.7203319,126.543564 60.0591662,126.254391 C60.7522644,125.661954 61.4219101,125.004576 62.0847662,124.349649 C62.7488567,123.694722 63.3962838,123.021414 64.0449449,122.337693 C65.1361271,121.20367 66.0711623,119.998579 67.1277822,118.83086 C67.2629456,118.685661 67.4011953,118.531272 67.5412958,118.381785 C67.5412958,118.384235 67.5412958,118.384235 67.5437646,118.384235 L67.5561083,118.397714 C67.7764432,118.555166 67.9961612,118.714456 68.2115584,118.882323 C69.4829591,119.82336 70.7963282,120.841591 72.0621737,121.721362 C73.6946273,122.860286 75.3474476,124.001049 77.0576662,124.950663 C77.484141,125.186535 77.9254283,125.40709 78.3469653,125.54555 C78.4012773,125.565155 78.4469489,125.574957 78.4895347,125.581084 C78.5203942,125.599464 78.633339,125.61723 78.6462996,125.61723 C78.7290024,125.629484 78.8407127,125.634997 78.9481028,125.642349 C79.1783132,125.645412 79.4165464,125.634997 79.6553966,125.62397 C80.6200565,125.557803 81.5982939,125.418118 82.5771488,125.26618 C84.5323897,124.963528 86.4925684,124.614316 88.4416378,124.226505 C90.3944099,123.85585 92.3453307,123.458237 94.2839077,123.029992 C96.2323596,122.620739 98.172171,122.1686 100.096553,121.687666 C101.053806,121.431577 102.011677,121.195706 102.86586,120.788903 C103.737943,120.385777 104.547689,119.83255 105.293248,119.198453 C106.797327,117.926583 108.062556,116.349611 109.113004,114.632341 C109.11177,114.634792 109.11177,114.636017 109.110535,114.638468 C109.755493,113.448693 110.178265,112.386351 110.426373,111.676285" id="Path" fill="#4B4B4B"></path>
                    <polyline id="Path" fill="#161616" points="73.9661884 20.4416655 77.4051415 20.4416655 77.4051415 13.5070331 52.2585691 13.5070331 52.2585691 20.4416655 55.6975221 20.4416655 55.6975221 16.9195168 62.8087239 16.9195168 62.8087239 38.3372935 59.8814171 38.3372935 59.8814171 42.3121937 69.781059 42.3121937 69.781059 38.3372935 66.8531353 38.3372935 66.8531353 16.9195168 73.9661884 16.9195168 73.9661884 20.4416655"></polyline>
                    <path d="M105.350646,50.3514415 C105.317935,50.7717223 105.286459,51.0706975 105.267326,51.2324383 C104.057644,50.9058936 102.836236,50.607531 101.606186,50.3220342 C97.556221,49.4391995 93.4574976,48.7842722 89.33779,48.3168171 C89.1958376,48.2990501 89.0507988,48.2892476 88.9057606,48.2714807 C88.9335338,48.210828 88.9588382,48.1501752 88.977354,48.0895224 C89.1001737,47.6435102 89.2075638,47.1962726 89.3100162,46.7490351 C90.3715744,42.084899 90.3160274,37.4397551 90.1962936,35.1919271 L104.845172,39.32673 C105.643192,44.4938552 105.488896,48.5477877 105.350646,50.3514415 L105.350646,50.3514415 L105.350646,50.3514415 Z M87.1301201,47.5822448 C87.0813628,47.7488867 87.0875344,47.9222678 87.1301201,48.0833959 C85.5964162,47.9222678 84.0614779,47.785646 82.5277739,47.6618898 C84.247868,44.0803136 84.6237334,40.2671541 84.7076706,38.9229909 C86.030297,37.9917565 87.3442835,36.8718248 88.3101772,36.0012432 C88.3984345,38.5676515 88.3348646,43.2250484 87.1301201,47.5822448 L87.1301201,47.5822448 L87.1301201,47.5822448 Z M41.994788,48.0742061 C42.0361394,47.9198172 42.0392253,47.7488867 41.994788,47.5822448 C40.7925123,43.2311749 40.728325,38.5743906 40.8110278,36.0012432 C41.7800077,36.8718248 43.0915252,37.9917565 44.417855,38.9229909 C44.498089,40.2665415 44.8739545,44.0711238 46.5940482,47.6527 C45.0597271,47.7727802 43.5260232,47.913078 41.994788,48.0742061 L41.994788,48.0742061 L41.994788,48.0742061 Z M39.7821809,48.3137538 C37.7275732,48.5624914 35.6704967,48.8198061 33.6232951,49.156766 C31.5816482,49.5035282 29.5393842,49.872346 27.5156356,50.3189709 C26.2874381,50.6020171 25.0709671,50.9022176 23.8532618,51.2287623 C23.8421524,51.1331883 23.82734,50.9861513 23.8100588,50.7968411 C23.6687236,49.2982891 23.4014826,44.9803026 24.278502,39.324892 L38.9236771,35.1900891 C38.813201,37.3539836 38.7533341,41.7387494 39.6945408,46.2227652 C39.8253839,46.8452218 39.9741254,47.4682911 40.1457028,48.0882971 C40.1642183,48.1489499 40.1889057,48.2096026 40.2160618,48.2647415 C40.0685546,48.2831211 39.9278365,48.2953742 39.7821809,48.3137538 L39.7821809,48.3137538 L39.7821809,48.3137538 Z M113.201852,54.1848186 C113.077181,54.1253912 112.954361,54.0647384 112.836479,54.0071489 C112.655027,53.9207647 112.454442,53.8215147 112.224232,53.7106243 C112.210036,53.7038851 112.200779,53.6989839 112.200779,53.6989839 C112.070553,53.6358805 111.942179,53.5629747 111.816273,53.482717 C110.460935,52.860873 109.040176,52.3793268 107.621886,51.9173856 C107.454012,51.8628594 107.288606,51.8138471 107.120732,51.7654474 C107.133076,51.7237869 107.145419,51.6802884 107.152208,51.6380153 C107.173192,51.4787252 107.537331,48.8044898 107.317614,44.5900419 C107.224419,42.7900639 107.023834,40.7094904 106.644265,38.4224525 C106.583164,38.0573106 106.314688,37.7613986 105.960425,37.6603107 L103.872489,37.0740006 C103.423178,21.03594 96.7711622,13.4990686 96.563171,13.2656474 C102.505425,22.7599489 102.453581,34.019307 102.349894,36.6433048 L89.4050632,32.9906606 C89.3958053,32.9906606 89.3871649,32.9906606 89.3748211,32.9851468 C89.3223599,32.972281 89.2637277,32.9661545 89.2087982,32.9606406 C89.1964545,32.9606406 89.1822594,32.95819 89.1612747,32.95819 C89.0940021,32.9545141 89.0199398,32.9606406 88.9495808,32.975957 C88.939706,32.975957 88.9285961,32.9857594 88.9150185,32.9857594 C88.8576202,32.9973999 88.8051596,33.0157795 88.7477612,33.0427362 C88.727394,33.0519261 88.7088787,33.0647918 88.6903629,33.0703057 C88.6465432,33.0997131 88.6039574,33.1242193 88.5613716,33.154852 C88.5521137,33.1615912 88.53977,33.167105 88.5305121,33.1756822 C88.5175514,33.184872 88.5132312,33.1940619 88.5058247,33.2001884 C88.4934809,33.2130541 88.4786689,33.2216313 88.4687935,33.2308211 C88.4564504,33.2436868 88.1077406,33.5824846 87.5664697,34.0897622 C87.6047353,32.8877347 87.6139932,31.048547 87.476361,28.8025568 C87.4627829,28.5893532 87.4492048,28.3730863 87.4343922,28.1543687 C87.0276677,22.5118239 85.6840566,14.5859171 81.6686529,7.64760873 C81.7032152,7.74747132 82.1000653,8.89864847 82.613563,10.8376989 C83.9059473,15.716264 85.9408052,25.5891857 84.8317246,36.3032817 C84.82617,36.352294 84.8224667,36.4006937 84.817529,36.4503187 C84.8008651,36.4637971 84.7823498,36.4766628 84.7650684,36.4901412 C84.2589773,36.8889791 83.7423938,37.2780145 83.2307475,37.6211008 C82.9746159,37.7975452 82.8147651,38.08488 82.808593,38.394883 C82.808593,38.4432827 82.6950313,43.2330129 80.5657439,47.3114516 C80.5274789,47.378231 80.5077286,47.4456229 80.486127,47.5148528 C75.1857455,47.1546121 69.8705508,47.0002233 64.5609114,46.9965474 C59.2549747,46.9996107 53.9360771,47.1448097 48.6326092,47.5025998 C48.6116249,47.4388837 48.5900234,47.3721044 48.5591642,47.3114516 C46.4261739,43.2330129 46.3163151,38.4432827 46.3132292,38.394883 C46.3076745,38.08488 46.1509096,37.7969326 45.894778,37.6211008 C45.3658507,37.2657614 44.8214938,36.8632476 44.3012071,36.449706 C43.2242199,26.2575915 45.0017117,16.8129149 46.2953308,11.6739718 C46.9094295,9.23438298 47.4161382,7.75972442 47.4562552,7.64699604 C41.6300319,17.7110659 41.4282125,29.8538714 41.5572041,34.0891496 C41.0060582,33.5818719 40.6647551,33.2436868 40.6554973,33.2302084 C40.6456223,33.2210186 40.627724,33.2124415 40.6153803,33.1995757 C40.6092084,33.1934492 40.6030366,33.1842594 40.594396,33.1750696 C40.584521,33.1664924 40.5727945,33.1609785 40.5604508,33.1542393 C40.5178651,33.1236066 40.474045,33.0991004 40.4314592,33.0758196 C40.410475,33.0641791 40.3950454,33.0513134 40.3703579,33.0421236 C40.3148113,33.0151668 40.2672881,32.9967872 40.2117415,32.9906606 C40.1963119,32.9851468 40.1845854,32.9753443 40.1747104,32.9753443 C40.1012654,32.9606406 40.0278205,32.9539014 39.9599301,32.9575773 C39.9420318,32.9575773 39.922899,32.9600279 39.9050007,32.9600279 C39.85254,32.9655419 39.8013137,32.9716684 39.7463842,32.9845341 C39.7340406,32.990048 39.7278687,32.990048 39.715525,32.990048 L26.7743968,36.6426921 C26.6700926,34.0180817 26.614546,22.7587235 32.5568,13.2650347 C32.3506604,13.5002939 25.6998783,21.0371653 25.2474819,37.0752259 L23.1694212,37.6609233 C22.8058994,37.7620112 22.5392756,38.0579232 22.4794087,38.4236778 C22.0998401,40.7076524 21.9004895,42.7857754 21.805443,44.5839153 C21.5857253,48.8032645 21.9504815,51.4799506 21.9739345,51.6392406 C21.9838094,51.6815137 21.9955359,51.7219489 22.0023249,51.7642221 C21.8363023,51.8150724 21.6659593,51.8640847 21.5005538,51.9155476 C20.0797947,52.3774889 18.6540981,52.8614856 17.2975262,53.4857802 C17.1728549,53.5648126 17.0450977,53.6377185 16.9148717,53.7002092 C16.9148717,53.7002092 16.9062311,53.7044978 16.8938874,53.7118496 C16.6630604,53.8227401 16.4618581,53.9213773 16.281023,54.0083742 C16.1779532,54.0586119 16.0693287,54.1106875 15.9625558,54.1627631 C15.8952826,54.2013603 15.8261579,54.2350563 15.7601192,54.2742661 C16.7204586,53.8999345 17.7135086,53.6266907 18.7059416,53.3846923 C19.7026948,53.1384053 20.70562,52.9203005 21.7073107,52.731603 C23.7224187,52.3597219 25.7424641,52.0368531 27.7748532,51.7911788 C29.8016877,51.5271249 31.8371627,51.30902 33.8757236,51.1393148 C35.915519,50.9665463 37.950994,50.7962285 39.9951097,50.6792116 C48.1684863,50.1988907 56.3628471,50.0475651 64.5609114,50.0445019 C72.7608265,50.0506284 80.9545706,50.1774478 89.1267125,50.6761483 C91.1714452,50.7937779 93.2069206,50.9628704 95.2491845,51.1344136 C97.2914489,51.3065694 99.3195177,51.5277375 101.346352,51.7917915 C103.379358,52.0344026 105.403107,52.356046 107.414512,52.729765 C108.419288,52.9215258 109.420362,53.1328914 110.412177,53.3846923 C111.412017,53.6273034 112.400129,53.9005471 113.36232,54.2748788 C113.308625,54.2424081 113.254313,54.2148387 113.201852,54.1848186 L113.201852,54.1848186 L113.201852,54.1848186 Z" id="Shape" fill="#0E0F0D"></path>
                    <path d="M66.8531353,16.9195168 L66.8531353,38.3372935 L69.781059,38.3372935 L69.781059,42.3121937 L59.8814171,42.3121937 L59.8814171,38.3372935 L62.8087239,38.3372935 L62.8087239,16.9195168 L55.6975221,16.9195168 L55.6975221,20.4422782 L52.2591863,20.4422782 L52.2591863,13.5070331 L77.4051415,13.5070331 L77.4051415,20.4416655 L73.9668054,20.4416655 L73.9668054,16.9189041 L66.8531353,16.9189041 L66.8531353,16.9195168 L66.8531353,16.9195168 Z M79.994231,23.0062358 L79.994231,10.9393995 L49.6762685,10.9393995 L49.6762685,23.0062358 L58.2859946,23.0062358 L58.2859946,19.4834744 L60.2202514,19.4834744 L60.2202514,35.767822 L57.2991162,35.767822 L57.2991162,44.8730881 L72.3670627,44.8730881 L72.3670627,35.767822 L69.4366701,35.767822 L69.4366701,19.4834744 L71.3783329,19.4834744 L71.3783329,23.0062358 L79.994231,23.0062358 L79.994231,23.0062358 Z" id="Shape" fill="#4B4B4B"></path>
                </g>
            </g>
        </g>
    </g>
</svg>