<?xml version="1.0" encoding="UTF-8"?>
<svg width="26px" height="17px" viewBox="0 0 26 17" version="1.1" xmlns="http://www.w3.org/2000/svg" xmlns:xlink="http://www.w3.org/1999/xlink">
    <!-- Generator: Sketch 55 (78076) - https://sketchapp.com -->
    <title>behance</title>
    <desc>Created with Sketch.</desc>
    <defs>
        <path d="M23.4798647,2.40571311 L16.9652226,2.40571311 L16.9652226,0.705268468 L23.4804088,0.705268468 L23.4804088,2.40571311 L23.4798647,2.40571311 L23.4798647,2.40571311 Z M12.6282734,9.37867952 C13.0486275,10.0628592 13.2586837,10.8935807 13.2586837,11.8688749 C13.2586837,12.8774539 13.0218491,13.7822404 12.5400196,14.5814557 C12.2334888,15.1103277 11.8529093,15.5570676 11.3956216,15.9167208 C10.8806063,16.3326533 10.2708692,16.6178605 9.56991635,16.7702462 C8.86672694,16.9228861 8.10562853,17 7.28577485,17 L0,17 L0,0 L7.81287978,0 C9.78220906,0.033665882 11.1783722,0.633236184 12.0028199,1.81071629 C12.4975248,2.53288122 12.7426407,3.39942832 12.7426407,4.40667339 C12.7426407,5.44599634 12.4945629,6.27760714 11.9950221,6.90944588 C11.7171435,7.26369988 11.3066425,7.58593954 10.7632166,7.87680006 C11.5863345,8.19344991 12.2108813,8.69208609 12.6282734,9.37867952 Z M3.73095989,6.7022419 L7.15424041,6.7022419 C7.85773205,6.7022419 8.42642508,6.56173448 8.86442993,6.28084669 C9.30213254,6.00040354 9.52053048,5.50189441 9.52053048,4.78614505 C9.52053048,3.99537795 9.23134815,3.47050779 8.65159318,3.21788663 C8.15326141,3.0423794 7.51565788,2.95198969 6.74198633,2.95198969 L3.73095989,2.95198969 L3.73095989,6.7022419 Z M9.85015241,11.6260359 C9.85015241,10.7429735 9.50668793,10.1324777 8.82114929,9.80490229 C8.43778926,9.61872361 7.89690224,9.52356985 7.20338448,9.51677316 L3.73095989,9.51677316 L3.73095989,14.0471845 L7.14964638,14.0471845 C7.85198951,14.0471845 8.39559669,13.9505698 8.78790299,13.7490192 C9.49538419,13.3784404 9.85015241,12.6731719 9.85015241,11.6260359 Z M25.8969914,8.8604155 C25.9756945,9.41660128 26.0112982,10.2235661 25.9968512,11.2783246 L17.5596664,11.2783246 C17.6062112,12.5021111 18.0082496,13.3579233 18.7707383,13.8476666 C19.2305649,14.1547883 19.788075,14.3047603 20.4409114,14.3047603 C21.1292911,14.3047603 21.6903677,14.1218847 22.1222673,13.7459702 C22.3575907,13.5467063 22.5651684,13.2654374 22.744638,12.9105481 L25.8371481,12.9105481 C25.756148,13.6333483 25.3837895,14.3664387 24.7146322,15.1114075 C23.6778918,16.2954938 22.2238801,16.8892202 20.3565263,16.8892202 C18.8138981,16.8892202 17.4543663,16.3884878 16.2743041,15.3906438 C15.098171,14.3893061 14.507475,12.7653402 14.507475,10.5125845 C14.507475,8.4000822 15.0377837,6.78316706 16.1019674,5.65771027 C17.1700803,4.53015731 18.5485322,3.96895341 20.2476598,3.96895341 C21.2547808,3.96895341 22.1626465,4.15811755 22.9725867,4.53841498 C23.7799881,4.91909352 24.4472715,5.51821918 24.9728048,6.34163584 C25.4484082,7.06678623 25.7542741,7.90525726 25.8969914,8.8604155 Z M22.8530209,9.17763704 C22.7963209,8.33141651 22.527449,7.69093898 22.0433225,7.253219 C21.5631855,6.81429212 20.9633619,6.59393939 20.2476598,6.59393939 C19.4687292,6.59393939 18.8672735,6.82947353 18.4399075,7.29241116 C18.0096399,7.75439599 17.7419166,8.38248702 17.6322038,9.17770056 L22.8530209,9.17770056 L22.8530209,9.17763704 Z" id="path-1"></path>
    </defs>
    <g id="Home-screen" stroke="none" stroke-width="1" fill="none" fill-rule="evenodd">
        <g id="render-#5" transform="translate(-1186.000000, -244.000000)">
            <g id="social_links" transform="translate(1186.000000, 244.000000)">
                <mask id="mask-2" fill="white">
                    <use xlink:href="#path-1"></use>
                </mask>
                <use id="behance" fill="#232323" fill-rule="nonzero" xlink:href="#path-1"></use>
            </g>
        </g>
    </g>
</svg>