<?xml version="1.0" encoding="UTF-8"?>
<svg width="19px" height="19px" viewBox="0 0 19 19" version="1.1" xmlns="http://www.w3.org/2000/svg" xmlns:xlink="http://www.w3.org/1999/xlink">
    <!-- Generator: Sketch 55 (78076) - https://sketchapp.com -->
    <title>github</title>
    <desc>Created with Sketch.</desc>
    <defs>
        <path d="M21.7256388,146.850076 C20.8761225,145.358032 19.7238078,144.176778 18.2683915,143.306049 C16.8127585,142.435276 15.2236413,142 13.4999134,142 C11.776402,142 10.1867649,142.435409 8.73143524,143.306049 C7.27588896,144.176734 6.12361759,145.358032 5.27410123,146.850076 C4.42471485,148.342075 4,149.97135 4,151.737856 C4,153.859831 4.60395033,155.767965 5.81215426,157.462747 C7.02022821,159.157662 8.58088091,160.330477 10.4939824,160.981326 C10.7166728,161.023694 10.8815244,160.993894 10.9887104,160.892681 C11.0959398,160.791334 11.1494894,160.664406 11.1494894,160.512431 C11.1494894,160.487072 11.1473665,160.258931 11.1432507,159.827741 C11.1390048,159.396551 11.1370119,159.020387 11.1370119,158.699426 L10.8524967,158.749877 C10.6710949,158.783941 10.4422524,158.798374 10.1659689,158.794288 C9.88981544,158.790336 9.60313399,158.760669 9.3063145,158.70551 C9.00936504,158.65084 8.73316824,158.524045 8.47750749,158.325393 C8.22197671,158.126741 8.04057499,157.866713 7.93334565,157.545707 L7.80965281,157.253925 C7.72720536,157.05967 7.59740369,156.843875 7.42007452,156.60734 C7.24274534,156.370583 7.06342322,156.21008 6.8820215,156.125565 L6.79541485,156.062013 C6.73770596,156.019778 6.68415628,155.968838 6.63463582,155.909726 C6.58515868,155.850615 6.54811582,155.791459 6.52337725,155.732214 C6.49859536,155.672925 6.5191314,155.624294 6.58520201,155.586145 C6.65127261,155.547996 6.77067628,155.529476 6.94393291,155.529476 L7.19123193,155.567359 C7.35617016,155.601245 7.56018753,155.702458 7.80354398,155.871621 C8.04677046,156.040651 8.24671528,156.260398 8.40342176,156.530775 C8.59318521,156.87745 8.82181117,157.141608 9.08994951,157.323384 C9.35787124,157.50516 9.62800254,157.595892 9.90008346,157.595892 C10.1721644,157.595892 10.4071591,157.574752 10.6051543,157.532695 C10.8029329,157.490415 10.9884938,157.426863 11.1617504,157.342392 C11.2359661,156.775792 11.4380339,156.340516 11.7677803,156.036254 C11.2977909,155.985625 10.8752423,155.909371 10.4999179,155.80798 C10.1248102,155.706455 9.7371815,155.541689 9.33729187,155.313237 C8.93718561,155.085096 8.60527288,154.801796 8.34146703,154.463826 C8.07761786,154.125678 7.86107957,153.681742 7.69215544,153.132418 C7.52314466,152.582871 7.43861761,151.948944 7.43861761,151.230457 C7.43861761,150.207441 7.76442152,149.33689 8.41589936,148.618314 C8.11071815,147.849198 8.13952926,146.986996 8.50241936,146.031796 C8.74157329,145.955631 9.09623164,146.012788 9.5662211,146.202913 C10.0362972,146.393127 10.3804709,146.556072 10.5990888,146.691172 C10.8177067,146.826227 10.9928696,146.940675 11.1248375,147.033495 C11.8919064,146.813792 12.6834973,146.703918 13.4998267,146.703918 C14.3161561,146.703918 15.1079203,146.813792 15.8750325,147.033495 L16.3450653,146.729321 C16.6664934,146.526361 17.0460636,146.340366 17.4828661,146.171292 C17.9199286,146.002307 18.2541375,145.955764 18.4851464,146.03193 C18.8560949,146.987173 18.8891519,147.849331 18.583884,148.618447 C19.2353185,149.337023 19.5612524,150.207796 19.5612524,151.23059 C19.5612524,151.949077 19.4764221,152.585003 19.3076713,153.138768 C19.1387038,153.692622 18.9203025,154.136114 18.6523808,154.470176 C18.3841558,154.804194 18.0501202,155.085274 17.6502305,155.313371 C17.2502542,155.541645 16.8624956,155.706411 16.4873879,155.807935 C16.1121068,155.90946 15.6895582,155.985758 15.2195688,156.036476 C15.6482262,156.416726 15.8625982,157.016946 15.8625982,157.836868 L15.8625982,160.512075 C15.8625982,160.664051 15.914155,160.790934 16.0173551,160.892325 C16.1204252,160.993539 16.2831972,161.023339 16.5058876,160.980926 C18.4192491,160.330166 19.9799018,159.157307 21.1879324,157.462392 C22.395833,155.76761 23,153.859476 23,151.737501 C22.9995668,149.971217 22.5746353,148.342075 21.7256388,146.850076 Z" id="path-1"></path>
    </defs>
    <g id="Home-screen" stroke="none" stroke-width="1" fill="none" fill-rule="evenodd">
        <g id="render-#5" transform="translate(-1190.000000, -386.000000)">
            <g id="social_links" transform="translate(1186.000000, 244.000000)">
                <mask id="mask-2" fill="white">
                    <use xlink:href="#path-1"></use>
                </mask>
                <use id="github" fill="#232323" fill-rule="nonzero" xlink:href="#path-1"></use>
            </g>
        </g>
    </g>
</svg>