<?xml version="1.0" encoding="UTF-8"?>
<svg width="19px" height="19px" viewBox="0 0 19 19" version="1.1" xmlns="http://www.w3.org/2000/svg" xmlns:xlink="http://www.w3.org/1999/xlink">
    <!-- Generator: Sketch 55 (78076) - https://sketchapp.com -->
    <title>instagram</title>
    <desc>Created with Sketch.</desc>
    <defs>
        <path d="M17.7565745,35 C20.6478984,35 23.0001124,37.352214 23,40.2433131 L23,48.7566869 C23,51.647786 20.6478984,54 17.7565745,54 L9.24320072,54 C6.3521016,54 4,51.6478984 4,48.7566869 L4,40.2433131 C4,37.352214 6.3521016,35 9.24320072,35 L17.7565745,35 Z M21.3143403,48.7566869 L21.3142279,48.7566869 L21.3142279,40.2433131 C21.3142279,38.2817487 19.7182513,36.6857721 17.7565745,36.6857721 L9.24320072,36.6857721 C7.28163632,36.6857721 5.68577208,38.2817487 5.68577208,40.2433131 L5.68577208,48.7566869 C5.68577208,50.7183637 7.28163632,52.3143403 9.24320072,52.3142279 L17.7566869,52.3142279 C19.7183637,52.3142279 21.3143403,50.7183637 21.3143403,48.7566869 Z M13.5,39.6044055 C16.1995954,39.6044055 18.3958193,41.8006294 18.3958193,44.5002248 C18.3958193,47.1997078 16.1995954,49.3958193 13.5,49.3958193 C10.8004046,49.3958193 8.60418071,47.1997078 8.60418071,44.5002248 C8.60418071,41.8006294 10.8004046,39.6044055 13.5,39.6044055 Z M13.5,47.7099348 C15.2699483,47.7099348 16.7100472,46.2700607 16.7100472,44.5001124 C16.7100472,42.7300517 15.2700607,41.2900652 13.5,41.2900652 C11.7299393,41.2900652 10.2899528,42.7300517 10.2899528,44.5001124 C10.2899528,46.2700607 11.7300517,47.7099348 13.5,47.7099348 Z M18.6011463,38.1749831 C18.9270623,38.1749831 19.2462351,38.3064734 19.4755001,38.5368622 C19.705889,38.7661272 19.8373792,39.0853001 19.8373792,39.411216 C19.8373792,39.7360081 19.705889,40.0551809 19.4755001,40.2855698 C19.2451113,40.5148348 18.9270623,40.6474489 18.6011463,40.6474489 C18.2763542,40.6474489 17.9571814,40.5148348 17.7279164,40.2855698 C17.4975275,40.0551809 17.3649135,39.7361205 17.3649135,39.411216 C17.3649135,39.0853001 17.4974151,38.7661272 17.7279164,38.5368622 C17.9572938,38.3064734 18.2763542,38.1749831 18.6011463,38.1749831 Z" id="path-1"></path>
    </defs>
    <g id="Home-screen" stroke="none" stroke-width="1" fill="none" fill-rule="evenodd">
        <g id="render-#5" transform="translate(-1190.000000, -279.000000)">
            <g id="social_links" transform="translate(1186.000000, 244.000000)">
                <mask id="mask-2" fill="white">
                    <use xlink:href="#path-1"></use>
                </mask>
                <use id="instagram" fill="#232323" fill-rule="nonzero" xlink:href="#path-1"></use>
            </g>
        </g>
    </g>
</svg>