<?xml version="1.0" encoding="UTF-8"?>
<svg width="17px" height="17px" viewBox="0 0 17 17" version="1.1" xmlns="http://www.w3.org/2000/svg" xmlns:xlink="http://www.w3.org/1999/xlink">
    <!-- Generator: Sketch 55 (78076) - https://sketchapp.com -->
    <title>linkedin</title>
    <desc>Created with Sketch.</desc>
    <defs>
        <path d="M22,116.422687 L22,123 L18.3563496,123 L18.3563496,116.863195 C18.3563496,115.32158 17.8293348,114.269488 16.5104541,114.269488 C15.503656,114.269488 14.9045097,114.978521 14.6409233,115.664391 C14.5448006,115.909587 14.5200585,116.250867 14.5200585,116.594092 L14.5200585,123 L10.8751828,123 C10.8751828,123 10.9242718,112.606267 10.8751828,111.529399 L14.5197028,111.529399 L14.5197028,113.155311 C14.5123118,113.167471 14.5027074,113.180583 14.4957512,113.192371 L14.5197028,113.192371 L14.5197028,113.155311 C15.0039129,112.374845 15.8686613,111.259923 17.804237,111.259923 C20.2022845,111.259882 22,112.899361 22,116.422687 Z M7.06248765,106 C5.81558041,106 5,106.855911 5,107.981462 C5,109.082486 5.79198451,109.964372 7.01411011,109.964372 L7.03845698,109.964372 C8.30951346,109.964372 9.09999605,109.082652 9.09999605,107.981462 C9.07604443,106.855911 8.30951346,106 7.06248765,106 Z M5.21647366,123 L8.85996601,123 L8.85996601,111.529399 L5.21647366,111.529399 L5.21647366,123 Z" id="path-1"></path>
    </defs>
    <g id="Home-screen" stroke="none" stroke-width="1" fill="none" fill-rule="evenodd">
        <g id="render-#5" transform="translate(-1191.000000, -350.000000)">
            <g id="social_links" transform="translate(1186.000000, 244.000000)">
                <mask id="mask-2" fill="white">
                    <use xlink:href="#path-1"></use>
                </mask>
                <use id="linkedin" fill="#232323" fill-rule="nonzero" xlink:href="#path-1"></use>
            </g>
        </g>
    </g>
</svg>