<?xml version="1.0" encoding="UTF-8"?>
<svg width="20px" height="17px" viewBox="0 0 20 17" version="1.1" xmlns="http://www.w3.org/2000/svg" xmlns:xlink="http://www.w3.org/1999/xlink">
    <!-- Generator: Sketch 55 (78076) - https://sketchapp.com -->
    <title>twitter</title>
    <desc>Created with Sketch.</desc>
    <defs>
        <path d="M23,73.0113675 C22.2638877,73.3526882 21.4740498,73.584168 20.6441792,73.6875114 C21.4915335,73.1565339 22.140162,72.3143292 22.4475808,71.3138605 C21.6527429,71.8055798 20.7753885,72.1626311 19.8405504,72.3561863 C19.0919544,71.5205132 18.0271487,71 16.8461011,71 C14.5802804,71 12.7431205,72.9224552 12.7431205,75.2921735 C12.7431205,75.628262 12.7793624,75.9565195 12.8493625,76.2704141 C9.44001052,76.0912216 6.41683565,74.3819508 4.39346633,71.7846512 C4.03977294,72.4176384 3.83856346,73.1552003 3.83856346,73.9425188 C3.83856346,75.4321078 4.56343393,76.746437 5.66323965,77.5153917 C4.99085293,77.4918641 4.35846627,77.2983089 3.80483792,76.9765831 L3.80483792,77.030204 C3.80483792,79.1095895 5.21957879,80.845021 7.09546421,81.2399969 C6.75177084,81.3367745 6.38935194,81.3903955 6.01441669,81.3903955 C5.74948162,81.3903955 5.49327205,81.3629352 5.24206249,81.3106138 C5.76444896,83.0172856 7.27919,84.2583647 9.07386613,84.2923908 C7.67036711,85.4432581 5.90069101,86.1272331 3.97856369,86.1272331 C3.64738668,86.1272331 3.321177,86.1063045 3,86.06838 C4.815918,87.2885647 6.9717712,88 9.28883381,88 C16.8361664,88 20.9616633,81.4584134 20.9616633,75.7852265 L20.9479051,75.2294219 C21.7539849,74.6277933 22.451339,73.8719019 23,73.0113675 Z" id="path-1"></path>
    </defs>
    <g id="Home-screen" stroke="none" stroke-width="1" fill="none" fill-rule="evenodd">
        <g id="render-#5" transform="translate(-1189.000000, -315.000000)">
            <g id="social_links" transform="translate(1186.000000, 244.000000)">
                <mask id="mask-2" fill="white">
                    <use xlink:href="#path-1"></use>
                </mask>
                <use id="twitter" fill="#232323" fill-rule="nonzero" xlink:href="#path-1"></use>
            </g>
        </g>
    </g>
</svg>